<?xml version="1.0" standalone="no"?>
<!DOCTYPE svg PUBLIC "-//W3C//DTD SVG 20010904//EN"
 "http://www.w3.org/TR/2001/REC-SVG-20010904/DTD/svg10.dtd">
<svg version="1.0" xmlns="http://www.w3.org/2000/svg"
 width="939.000000pt" height="1036.000000pt" viewBox="0 0 939.000000 1036.000000"
 preserveAspectRatio="xMidYMid meet">

<g transform="translate(0.000000,1036.000000) scale(0.100000,-0.100000)"
fill="#000000" stroke="none">
<path d="M5425 10339 c-16 -5 -45 -11 -65 -14 -88 -13 -332 -100 -441 -157
-144 -75 -346 -249 -434 -373 -130 -182 -216 -436 -230 -675 -3 -58 -8 -125
-11 -149 -5 -40 -4 -43 10 -32 8 7 27 34 42 59 26 44 119 170 199 270 19 24
38 48 42 55 5 7 58 55 118 107 61 52 112 98 113 102 2 4 8 8 13 8 6 0 59 34
118 75 60 41 115 75 122 77 8 2 16 6 19 9 10 13 218 101 270 114 3 1 16 6 30
12 25 10 87 26 92 23 2 -1 15 5 30 13 15 7 41 12 57 9 l31 -4 -23 -17 c-12
-10 -42 -29 -67 -43 -102 -56 -129 -73 -226 -139 -93 -63 -312 -251 -331 -283
-4 -7 -31 -40 -60 -73 -92 -104 -152 -195 -213 -318 -63 -128 -105 -239 -96
-254 9 -13 329 -19 441 -8 85 9 270 41 270 47 0 1 16 4 35 6 96 13 350 111
480 185 56 32 155 112 320 260 36 32 76 68 90 79 41 35 117 106 255 240 189
182 428 400 439 400 2 0 38 23 80 51 69 45 134 78 229 118 15 6 26 15 23 20
-14 23 -147 75 -301 119 -331 95 -278 90 -898 90 -298 0 -555 -4 -572 -9z
m1215 -552 c0 -1 -30 -32 -67 -67 l-68 -65 65 68 c60 62 70 72 70 64z m-140
-141 c0 -2 -8 -10 -17 -17 -16 -13 -17 -12 -4 4 13 16 21 21 21 13z"/>
<path d="M1717 4534 c-1 -1 -33 -5 -72 -9 -38 -3 -88 -8 -110 -11 -22 -2 -94
-6 -160 -8 -66 -3 -148 -11 -182 -19 -34 -8 -64 -13 -66 -11 -5 5 -213 -38
-322 -66 -76 -20 -169 -47 -298 -87 l-58 -18 2 -145 c3 -182 9 -261 18 -255 5
2 6 -7 3 -20 -5 -31 -5 -31 60 -1 29 13 71 30 93 36 22 7 46 17 53 23 6 5 12
7 12 4 0 -3 25 3 55 13 30 10 67 21 82 24 31 6 81 19 131 34 17 6 32 9 32 6 0
-3 8 0 18 5 9 5 35 12 57 15 71 12 128 23 153 30 9 3 46 7 82 11 36 3 76 7 90
10 28 5 76 12 145 20 112 12 474 6 569 -11 16 -3 48 -7 70 -9 83 -7 181 -21
221 -31 6 -1 21 -5 35 -8 14 -3 36 -7 50 -10 14 -3 37 -7 53 -8 15 -1 27 -7
27 -12 0 -5 2 -7 5 -4 3 3 38 -3 78 -14 40 -11 88 -24 108 -29 35 -8 195 -62
234 -78 82 -35 202 -83 210 -85 14 -3 269 -132 325 -164 25 -14 71 -43 103
-64 31 -21 57 -36 57 -33 0 4 12 -2 27 -13 l28 -20 40 31 c52 42 225 194 248
220 9 10 17 25 17 33 0 16 -31 46 -68 65 -15 7 -52 30 -82 50 -148 98 -416
236 -610 313 -80 32 -154 62 -165 66 -11 5 -29 11 -40 13 -11 3 -58 19 -105
35 -96 34 -295 88 -355 96 -22 3 -71 12 -110 20 -152 30 -209 38 -302 42 -101
3 -204 11 -283 20 -49 6 -199 12 -203 8z"/>
<path d="M4319 3183 c-13 -16 -12 -17 4 -4 16 13 21 21 13 21 -2 0 -10 -8 -17
-17z"/>
<path d="M3964 2838 l-19 -23 23 19 c21 18 27 26 19 26 -2 0 -12 -10 -23 -22z"/>
</g>
</svg>
